<?xml version="1.0" encoding="UTF-8" standalone="no"?>
<!DOCTYPE svg PUBLIC "-//W3C//DTD SVG 1.1//EN"
 "http://www.w3.org/Graphics/SVG/1.1/DTD/svg11.dtd">
<!-- Generated by graphviz version 2.40.1 (20161225.0304)
 -->
<!-- Title: G Pages: 1 -->
<svg width="489pt" height="273pt"
 viewBox="0.00 0.00 489.00 273.00" xmlns="http://www.w3.org/2000/svg" xmlns:xlink="http://www.w3.org/1999/xlink">
<g id="graph0" class="graph" transform="scale(1 1) rotate(0) translate(4 269)">
<title>G</title>
<polygon fill="#ffffff" stroke="transparent" points="-4,4 -4,-269 485,-269 485,4 -4,4"/>
<g id="clust1" class="cluster">
<title>cluster_G</title>
<path fill="#808080" fill-opacity="0.094118" stroke="#000000" d="M20,-8C20,-8 461,-8 461,-8 467,-8 473,-14 473,-20 473,-20 473,-245 473,-245 473,-251 467,-257 461,-257 461,-257 20,-257 20,-257 14,-257 8,-251 8,-245 8,-245 8,-20 8,-20 8,-14 14,-8 20,-8"/>
</g>
<g id="clust2" class="cluster">
<title>cluster_XICRA__config__set_config</title>
<path fill="#808080" fill-opacity="0.094118" stroke="#000000" d="M320,-99C320,-99 453,-99 453,-99 459,-99 465,-105 465,-111 465,-111 465,-162 465,-162 465,-168 459,-174 453,-174 453,-174 320,-174 320,-174 314,-174 308,-168 308,-162 308,-162 308,-111 308,-111 308,-105 314,-99 320,-99"/>
<text text-anchor="middle" x="386.5" y="-158.8" font-family="Times,serif" font-size="14.00" fill="#000000">XICRA.config.set_config</text>
</g>
<g id="clust3" class="cluster">
<title>cluster_XICRA__scripts__fastqc_caller</title>
<path fill="#808080" fill-opacity="0.094118" stroke="#000000" d="M138,-99C138,-99 288,-99 288,-99 294,-99 300,-105 300,-111 300,-111 300,-237 300,-237 300,-243 294,-249 288,-249 288,-249 138,-249 138,-249 132,-249 126,-243 126,-237 126,-237 126,-111 126,-111 126,-105 132,-99 138,-99"/>
<text text-anchor="middle" x="213" y="-233.8" font-family="Times,serif" font-size="14.00" fill="#000000">XICRA.scripts.fastqc_caller</text>
</g>
<g id="clust4" class="cluster">
<title>cluster_XICRA__scripts__functions</title>
<path fill="#808080" fill-opacity="0.094118" stroke="#000000" d="M28,-16C28,-16 453,-16 453,-16 459,-16 465,-22 465,-28 465,-28 465,-79 465,-79 465,-85 459,-91 453,-91 453,-91 28,-91 28,-91 22,-91 16,-85 16,-79 16,-79 16,-28 16,-28 16,-22 22,-16 28,-16"/>
<text text-anchor="middle" x="240.5" y="-75.8" font-family="Times,serif" font-size="14.00" fill="#000000">XICRA.scripts.functions</text>
</g>
<!-- XICRA__config__set_config__get_exe -->
<g id="node1" class="node">
<title>XICRA__config__set_config__get_exe</title>
<ellipse fill="#ff9365" fill-opacity="0.698039" stroke="#000000" cx="354" cy="-125" rx="38.1938" ry="18"/>
<text text-anchor="middle" x="354" y="-121.3" font-family="Times,serif" font-size="14.00" fill="#000000">get_exe</text>
</g>
<!-- XICRA__scripts__fastqc_caller__call_fastqc -->
<g id="node2" class="node">
<title>XICRA__scripts__fastqc_caller__call_fastqc</title>
<ellipse fill="#65a3ff" fill-opacity="0.698039" stroke="#000000" cx="213" cy="-125" rx="48.9926" ry="18"/>
<text text-anchor="middle" x="213" y="-121.3" font-family="Times,serif" font-size="14.00" fill="#000000">call_fastqc</text>
</g>
<!-- XICRA__scripts__functions__print_time_stamp -->
<g id="node4" class="node">
<title>XICRA__scripts__functions__print_time_stamp</title>
<ellipse fill="#6575ff" fill-opacity="0.698039" stroke="#000000" cx="384" cy="-42" rx="73.387" ry="18"/>
<text text-anchor="middle" x="384" y="-38.3" font-family="Times,serif" font-size="14.00" fill="#000000">print_time_stamp</text>
</g>
<!-- XICRA__scripts__fastqc_caller__call_fastqc&#45;&gt;XICRA__scripts__functions__print_time_stamp -->
<g id="edge1" class="edge">
<title>XICRA__scripts__fastqc_caller__call_fastqc&#45;&gt;XICRA__scripts__functions__print_time_stamp</title>
<path fill="none" stroke="#000000" d="M259.0253,-119C280.511,-119 301.4247,-119 301.4247,-119 301.4247,-119 301.4247,-42 301.4247,-42 301.4247,-42 302.3084,-42 302.3084,-42"/>
<polygon fill="#000000" stroke="#000000" points="300.2618,-45.5001 310.2617,-42 300.2617,-38.5001 300.2618,-45.5001"/>
</g>
<!-- XICRA__scripts__functions__read_time_stamp -->
<g id="node5" class="node">
<title>XICRA__scripts__functions__read_time_stamp</title>
<ellipse fill="#6575ff" fill-opacity="0.698039" stroke="#000000" cx="220" cy="-42" rx="72.2875" ry="18"/>
<text text-anchor="middle" x="220" y="-38.3" font-family="Times,serif" font-size="14.00" fill="#000000">read_time_stamp</text>
</g>
<!-- XICRA__scripts__fastqc_caller__call_fastqc&#45;&gt;XICRA__scripts__functions__read_time_stamp -->
<g id="edge2" class="edge">
<title>XICRA__scripts__fastqc_caller__call_fastqc&#45;&gt;XICRA__scripts__functions__read_time_stamp</title>
<path fill="none" stroke="#000000" d="M213,-106.9902C213,-106.9902 213,-69.9746 213,-69.9746"/>
<polygon fill="#000000" stroke="#000000" points="216.5001,-69.9746 213,-59.9746 209.5001,-69.9747 216.5001,-69.9746"/>
</g>
<!-- XICRA__scripts__functions__system_call -->
<g id="node6" class="node">
<title>XICRA__scripts__functions__system_call</title>
<ellipse fill="#6575ff" fill-opacity="0.698039" stroke="#000000" cx="77" cy="-42" rx="52.7911" ry="18"/>
<text text-anchor="middle" x="77" y="-38.3" font-family="Times,serif" font-size="14.00" fill="#000000">system_call</text>
</g>
<!-- XICRA__scripts__fastqc_caller__call_fastqc&#45;&gt;XICRA__scripts__functions__system_call -->
<g id="edge3" class="edge">
<title>XICRA__scripts__fastqc_caller__call_fastqc&#45;&gt;XICRA__scripts__functions__system_call</title>
<path fill="none" stroke="#000000" d="M163.9009,-125C124.9453,-125 77,-125 77,-125 77,-125 77,-70.0098 77,-70.0098"/>
<polygon fill="#000000" stroke="#000000" points="80.5001,-70.0097 77,-60.0098 73.5001,-70.0098 80.5001,-70.0097"/>
</g>
<!-- XICRA__scripts__fastqc_caller__run_module_fastqc -->
<g id="node3" class="node">
<title>XICRA__scripts__fastqc_caller__run_module_fastqc</title>
<ellipse fill="#65a3ff" fill-opacity="0.698039" stroke="#000000" cx="213" cy="-200" rx="79.0865" ry="18"/>
<text text-anchor="middle" x="213" y="-196.3" font-family="Times,serif" font-size="14.00" fill="#000000">run_module_fastqc</text>
</g>
<!-- XICRA__scripts__fastqc_caller__run_module_fastqc&#45;&gt;XICRA__config__set_config__get_exe -->
<g id="edge4" class="edge">
<title>XICRA__scripts__fastqc_caller__run_module_fastqc&#45;&gt;XICRA__config__set_config__get_exe</title>
<path fill="none" stroke="#000000" d="M276.9446,-189.2188C276.9446,-169.8125 276.9446,-131 276.9446,-131 276.9446,-131 307.7287,-131 307.7287,-131"/>
<polygon fill="#000000" stroke="#000000" points="307.7287,-134.5001 317.7287,-131 307.7286,-127.5001 307.7287,-134.5001"/>
</g>
<!-- XICRA__scripts__fastqc_caller__run_module_fastqc&#45;&gt;XICRA__scripts__fastqc_caller__call_fastqc -->
<g id="edge5" class="edge">
<title>XICRA__scripts__fastqc_caller__run_module_fastqc&#45;&gt;XICRA__scripts__fastqc_caller__call_fastqc</title>
<path fill="none" stroke="#000000" d="M213,-181.8446C213,-181.8446 213,-153.2482 213,-153.2482"/>
<polygon fill="#000000" stroke="#000000" points="216.5001,-153.2481 213,-143.2482 209.5001,-153.2482 216.5001,-153.2481"/>
</g>
</g>
</svg>
