<?xml version="1.0" encoding="UTF-8" standalone="no"?>
<!DOCTYPE svg PUBLIC "-//W3C//DTD SVG 1.1//EN"
 "http://www.w3.org/Graphics/SVG/1.1/DTD/svg11.dtd">
<!-- Generated by graphviz version 2.40.1 (20161225.0304)
 -->
<!-- Title: G Pages: 1 -->
<svg width="1577pt" height="187pt"
 viewBox="0.00 0.00 1577.00 187.00" xmlns="http://www.w3.org/2000/svg" xmlns:xlink="http://www.w3.org/1999/xlink">
<g id="graph0" class="graph" transform="scale(1 1) rotate(0) translate(4 183)">
<title>G</title>
<polygon fill="#ffffff" stroke="transparent" points="-4,4 -4,-183 1573,-183 1573,4 -4,4"/>
<g id="clust1" class="cluster">
<title>cluster_G</title>
<path fill="#808080" fill-opacity="0.094118" stroke="#000000" d="M20,-8C20,-8 1549,-8 1549,-8 1555,-8 1561,-14 1561,-20 1561,-20 1561,-159 1561,-159 1561,-165 1555,-171 1549,-171 1549,-171 20,-171 20,-171 14,-171 8,-165 8,-159 8,-159 8,-20 8,-20 8,-14 14,-8 20,-8"/>
</g>
<g id="clust2" class="cluster">
<title>cluster_XICRA__scripts__functions</title>
<path fill="#808080" fill-opacity="0.094118" stroke="#000000" d="M28,-16C28,-16 1541,-16 1541,-16 1547,-16 1553,-22 1553,-28 1553,-28 1553,-151 1553,-151 1553,-157 1547,-163 1541,-163 1541,-163 28,-163 28,-163 22,-163 16,-157 16,-151 16,-151 16,-28 16,-28 16,-22 22,-16 28,-16"/>
<text text-anchor="middle" x="784.5" y="-147.8" font-family="Times,serif" font-size="14.00" fill="#000000">XICRA.scripts.functions</text>
</g>
<!-- XICRA__scripts__functions__command_sender -->
<g id="node1" class="node">
<title>XICRA__scripts__functions__command_sender</title>
<ellipse fill="#6575ff" fill-opacity="0.698039" stroke="#000000" cx="512" cy="-42" rx="73.387" ry="18"/>
<text text-anchor="middle" x="512" y="-38.3" font-family="Times,serif" font-size="14.00" fill="#000000">command_sender</text>
</g>
<!-- XICRA__scripts__functions__create_subfolder -->
<g id="node2" class="node">
<title>XICRA__scripts__functions__create_subfolder</title>
<ellipse fill="#6575ff" fill-opacity="0.698039" stroke="#000000" cx="1109" cy="-42" rx="69.5877" ry="18"/>
<text text-anchor="middle" x="1109" y="-38.3" font-family="Times,serif" font-size="14.00" fill="#000000">create_subfolder</text>
</g>
<!-- XICRA__scripts__functions__extract -->
<g id="node3" class="node">
<title>XICRA__scripts__functions__extract</title>
<ellipse fill="#6575ff" fill-opacity="0.698039" stroke="#000000" cx="386" cy="-42" rx="34.394" ry="18"/>
<text text-anchor="middle" x="386" y="-38.3" font-family="Times,serif" font-size="14.00" fill="#000000">extract</text>
</g>
<!-- XICRA__scripts__functions__get_fullpath_list -->
<g id="node4" class="node">
<title>XICRA__scripts__functions__get_fullpath_list</title>
<ellipse fill="#6575ff" fill-opacity="0.698039" stroke="#000000" cx="936" cy="-42" rx="68.4888" ry="18"/>
<text text-anchor="middle" x="936" y="-38.3" font-family="Times,serif" font-size="14.00" fill="#000000">get_fullpath_list</text>
</g>
<!-- XICRA__scripts__functions__get_symbolic_link -->
<g id="node5" class="node">
<title>XICRA__scripts__functions__get_symbolic_link</title>
<ellipse fill="#6575ff" fill-opacity="0.698039" stroke="#000000" cx="1468" cy="-114" rx="76.8869" ry="18"/>
<text text-anchor="middle" x="1468" y="-110.3" font-family="Times,serif" font-size="14.00" fill="#000000">get_symbolic_link</text>
</g>
<!-- XICRA__scripts__functions__system_call -->
<g id="node16" class="node">
<title>XICRA__scripts__functions__system_call</title>
<ellipse fill="#6575ff" fill-opacity="0.698039" stroke="#000000" cx="1444" cy="-42" rx="52.7911" ry="18"/>
<text text-anchor="middle" x="1444" y="-38.3" font-family="Times,serif" font-size="14.00" fill="#000000">system_call</text>
</g>
<!-- XICRA__scripts__functions__get_symbolic_link&#45;&gt;XICRA__scripts__functions__system_call -->
<g id="edge3" class="edge">
<title>XICRA__scripts__functions__get_symbolic_link&#45;&gt;XICRA__scripts__functions__system_call</title>
<path fill="none" stroke="#000000" d="M1444,-96.5708C1444,-96.5708 1444,-70.0206 1444,-70.0206"/>
<polygon fill="#000000" stroke="#000000" points="1447.5001,-70.0206 1444,-60.0206 1440.5001,-70.0206 1447.5001,-70.0206"/>
</g>
<!-- XICRA__scripts__functions__get_symbolic_link_file -->
<g id="node6" class="node">
<title>XICRA__scripts__functions__get_symbolic_link_file</title>
<ellipse fill="#6575ff" fill-opacity="0.698039" stroke="#000000" cx="1280" cy="-114" rx="92.8835" ry="18"/>
<text text-anchor="middle" x="1280" y="-110.3" font-family="Times,serif" font-size="14.00" fill="#000000">get_symbolic_link_file</text>
</g>
<!-- XICRA__scripts__functions__is_non_zero_file -->
<g id="node8" class="node">
<title>XICRA__scripts__functions__is_non_zero_file</title>
<ellipse fill="#6575ff" fill-opacity="0.698039" stroke="#000000" cx="1280" cy="-42" rx="69.5877" ry="18"/>
<text text-anchor="middle" x="1280" y="-38.3" font-family="Times,serif" font-size="14.00" fill="#000000">is_non_zero_file</text>
</g>
<!-- XICRA__scripts__functions__get_symbolic_link_file&#45;&gt;XICRA__scripts__functions__is_non_zero_file -->
<g id="edge7" class="edge">
<title>XICRA__scripts__functions__get_symbolic_link_file&#45;&gt;XICRA__scripts__functions__is_non_zero_file</title>
<path fill="none" stroke="#000000" d="M1280,-95.8314C1280,-95.8314 1280,-70.4133 1280,-70.4133"/>
<polygon fill="#000000" stroke="#000000" points="1283.5001,-70.4132 1280,-60.4133 1276.5001,-70.4133 1283.5001,-70.4132"/>
</g>
<!-- XICRA__scripts__functions__get_symbolic_link_file&#45;&gt;XICRA__scripts__functions__system_call -->
<g id="edge6" class="edge">
<title>XICRA__scripts__functions__get_symbolic_link_file&#45;&gt;XICRA__scripts__functions__system_call</title>
<path fill="none" stroke="#000000" d="M1361.2428,-105.1714C1361.2428,-85.9453 1361.2428,-42 1361.2428,-42 1361.2428,-42 1381.12,-42 1381.12,-42"/>
<polygon fill="#000000" stroke="#000000" points="1381.1201,-45.5001 1391.12,-42 1381.12,-38.5001 1381.1201,-45.5001"/>
</g>
<!-- XICRA__scripts__functions__gettime -->
<g id="node7" class="node">
<title>XICRA__scripts__functions__gettime</title>
<ellipse fill="#6575ff" fill-opacity="0.698039" stroke="#000000" cx="641" cy="-42" rx="37.8943" ry="18"/>
<text text-anchor="middle" x="641" y="-38.3" font-family="Times,serif" font-size="14.00" fill="#000000">gettime</text>
</g>
<!-- XICRA__scripts__functions__outdir_project -->
<g id="node9" class="node">
<title>XICRA__scripts__functions__outdir_project</title>
<ellipse fill="#6575ff" fill-opacity="0.698039" stroke="#000000" cx="1109" cy="-114" rx="60.3893" ry="18"/>
<text text-anchor="middle" x="1109" y="-110.3" font-family="Times,serif" font-size="14.00" fill="#000000">outdir_project</text>
</g>
<!-- XICRA__scripts__functions__outdir_project&#45;&gt;XICRA__scripts__functions__create_subfolder -->
<g id="edge9" class="edge">
<title>XICRA__scripts__functions__outdir_project&#45;&gt;XICRA__scripts__functions__create_subfolder</title>
<path fill="none" stroke="#000000" d="M1109,-95.8314C1109,-95.8314 1109,-70.4133 1109,-70.4133"/>
<polygon fill="#000000" stroke="#000000" points="1112.5001,-70.4132 1109,-60.4133 1105.5001,-70.4133 1112.5001,-70.4132"/>
</g>
<!-- XICRA__scripts__functions__pipeline_header -->
<g id="node10" class="node">
<title>XICRA__scripts__functions__pipeline_header</title>
<ellipse fill="#6575ff" fill-opacity="0.698039" stroke="#000000" cx="756" cy="-114" rx="66.8882" ry="18"/>
<text text-anchor="middle" x="756" y="-110.3" font-family="Times,serif" font-size="14.00" fill="#000000">pipeline_header</text>
</g>
<!-- XICRA__scripts__functions__print_sepLine -->
<g id="node11" class="node">
<title>XICRA__scripts__functions__print_sepLine</title>
<ellipse fill="#6575ff" fill-opacity="0.698039" stroke="#000000" cx="756" cy="-42" rx="59.5901" ry="18"/>
<text text-anchor="middle" x="756" y="-38.3" font-family="Times,serif" font-size="14.00" fill="#000000">print_sepLine</text>
</g>
<!-- XICRA__scripts__functions__pipeline_header&#45;&gt;XICRA__scripts__functions__print_sepLine -->
<g id="edge8" class="edge">
<title>XICRA__scripts__functions__pipeline_header&#45;&gt;XICRA__scripts__functions__print_sepLine</title>
<path fill="none" stroke="#000000" d="M756,-95.8314C756,-95.8314 756,-70.4133 756,-70.4133"/>
<polygon fill="#000000" stroke="#000000" points="759.5001,-70.4132 756,-60.4133 752.5001,-70.4133 759.5001,-70.4132"/>
</g>
<!-- XICRA__scripts__functions__print_time_stamp -->
<g id="node12" class="node">
<title>XICRA__scripts__functions__print_time_stamp</title>
<ellipse fill="#6575ff" fill-opacity="0.698039" stroke="#000000" cx="97" cy="-42" rx="73.387" ry="18"/>
<text text-anchor="middle" x="97" y="-38.3" font-family="Times,serif" font-size="14.00" fill="#000000">print_time_stamp</text>
</g>
<!-- XICRA__scripts__functions__read_time_stamp -->
<g id="node13" class="node">
<title>XICRA__scripts__functions__read_time_stamp</title>
<ellipse fill="#6575ff" fill-opacity="0.698039" stroke="#000000" cx="261" cy="-42" rx="72.2875" ry="18"/>
<text text-anchor="middle" x="261" y="-38.3" font-family="Times,serif" font-size="14.00" fill="#000000">read_time_stamp</text>
</g>
<!-- XICRA__scripts__functions__retrieve_matching_files -->
<g id="node14" class="node">
<title>XICRA__scripts__functions__retrieve_matching_files</title>
<ellipse fill="#6575ff" fill-opacity="0.698039" stroke="#000000" cx="936" cy="-114" rx="94.7833" ry="18"/>
<text text-anchor="middle" x="936" y="-110.3" font-family="Times,serif" font-size="14.00" fill="#000000">retrieve_matching_files</text>
</g>
<!-- XICRA__scripts__functions__retrieve_matching_files&#45;&gt;XICRA__scripts__functions__get_fullpath_list -->
<g id="edge5" class="edge">
<title>XICRA__scripts__functions__retrieve_matching_files&#45;&gt;XICRA__scripts__functions__get_fullpath_list</title>
<path fill="none" stroke="#000000" d="M936,-95.8314C936,-95.8314 936,-70.4133 936,-70.4133"/>
<polygon fill="#000000" stroke="#000000" points="939.5001,-70.4132 936,-60.4133 932.5001,-70.4133 939.5001,-70.4132"/>
</g>
<!-- XICRA__scripts__functions__sender -->
<g id="node15" class="node">
<title>XICRA__scripts__functions__sender</title>
<ellipse fill="#6575ff" fill-opacity="0.698039" stroke="#000000" cx="512" cy="-114" rx="33.5952" ry="18"/>
<text text-anchor="middle" x="512" y="-110.3" font-family="Times,serif" font-size="14.00" fill="#000000">sender</text>
</g>
<!-- XICRA__scripts__functions__sender&#45;&gt;XICRA__scripts__functions__command_sender -->
<g id="edge4" class="edge">
<title>XICRA__scripts__functions__sender&#45;&gt;XICRA__scripts__functions__command_sender</title>
<path fill="none" stroke="#000000" d="M512,-95.8314C512,-95.8314 512,-70.4133 512,-70.4133"/>
<polygon fill="#000000" stroke="#000000" points="515.5001,-70.4132 512,-60.4133 508.5001,-70.4133 515.5001,-70.4132"/>
</g>
<!-- XICRA__scripts__functions__timestamp -->
<g id="node17" class="node">
<title>XICRA__scripts__functions__timestamp</title>
<ellipse fill="#6575ff" fill-opacity="0.698039" stroke="#000000" cx="623" cy="-114" rx="48.1917" ry="18"/>
<text text-anchor="middle" x="623" y="-110.3" font-family="Times,serif" font-size="14.00" fill="#000000">timestamp</text>
</g>
<!-- XICRA__scripts__functions__timestamp&#45;&gt;XICRA__scripts__functions__gettime -->
<g id="edge1" class="edge">
<title>XICRA__scripts__functions__timestamp&#45;&gt;XICRA__scripts__functions__gettime</title>
<path fill="none" stroke="#000000" d="M637.1995,-96.5708C637.1995,-96.5708 637.1995,-70.0206 637.1995,-70.0206"/>
<polygon fill="#000000" stroke="#000000" points="640.6996,-70.0206 637.1995,-60.0206 633.6996,-70.0206 640.6996,-70.0206"/>
</g>
<!-- XICRA__scripts__functions__timestamp&#45;&gt;XICRA__scripts__functions__print_sepLine -->
<g id="edge2" class="edge">
<title>XICRA__scripts__functions__timestamp&#45;&gt;XICRA__scripts__functions__print_sepLine</title>
<path fill="none" stroke="#000000" d="M671.2627,-114C678.6512,-114 683.8763,-114 683.8763,-114 683.8763,-114 683.8763,-42 683.8763,-42 683.8763,-42 686.1111,-42 686.1111,-42"/>
<polygon fill="#000000" stroke="#000000" points="686.1111,-45.5001 696.1111,-42 686.1111,-38.5001 686.1111,-45.5001"/>
</g>
<!-- XICRA__scripts__functions__urllib_request -->
<g id="node18" class="node">
<title>XICRA__scripts__functions__urllib_request</title>
<ellipse fill="#6575ff" fill-opacity="0.698039" stroke="#000000" cx="261" cy="-114" rx="59.5901" ry="18"/>
<text text-anchor="middle" x="261" y="-110.3" font-family="Times,serif" font-size="14.00" fill="#000000">urllib_request</text>
</g>
<!-- XICRA__scripts__functions__urllib_request&#45;&gt;XICRA__scripts__functions__extract -->
<g id="edge12" class="edge">
<title>XICRA__scripts__functions__urllib_request&#45;&gt;XICRA__scripts__functions__extract</title>
<path fill="none" stroke="#000000" d="M320.9372,-114C353.0177,-114 386,-114 386,-114 386,-114 386,-70.1686 386,-70.1686"/>
<polygon fill="#000000" stroke="#000000" points="389.5001,-70.1686 386,-60.1686 382.5001,-70.1687 389.5001,-70.1686"/>
</g>
<!-- XICRA__scripts__functions__urllib_request&#45;&gt;XICRA__scripts__functions__print_time_stamp -->
<g id="edge10" class="edge">
<title>XICRA__scripts__functions__urllib_request&#45;&gt;XICRA__scripts__functions__print_time_stamp</title>
<path fill="none" stroke="#000000" d="M200.8637,-114C154.0582,-114 97,-114 97,-114 97,-114 97,-70.1686 97,-70.1686"/>
<polygon fill="#000000" stroke="#000000" points="100.5001,-70.1686 97,-60.1686 93.5001,-70.1687 100.5001,-70.1686"/>
</g>
<!-- XICRA__scripts__functions__urllib_request&#45;&gt;XICRA__scripts__functions__read_time_stamp -->
<g id="edge11" class="edge">
<title>XICRA__scripts__functions__urllib_request&#45;&gt;XICRA__scripts__functions__read_time_stamp</title>
<path fill="none" stroke="#000000" d="M261,-95.8314C261,-95.8314 261,-70.4133 261,-70.4133"/>
<polygon fill="#000000" stroke="#000000" points="264.5001,-70.4132 261,-60.4133 257.5001,-70.4133 264.5001,-70.4132"/>
</g>
</g>
</svg>
