<?xml version="1.0" encoding="UTF-8" standalone="no"?>
<!DOCTYPE svg PUBLIC "-//W3C//DTD SVG 1.1//EN"
 "http://www.w3.org/Graphics/SVG/1.1/DTD/svg11.dtd">
<!-- Generated by graphviz version 2.40.1 (20161225.0304)
 -->
<!-- Title: G Pages: 1 -->
<svg width="404pt" height="270pt"
 viewBox="0.00 0.00 404.00 270.00" xmlns="http://www.w3.org/2000/svg" xmlns:xlink="http://www.w3.org/1999/xlink">
<g id="graph0" class="graph" transform="scale(1 1) rotate(0) translate(4 266)">
<title>G</title>
<polygon fill="#ffffff" stroke="transparent" points="-4,4 -4,-266 400,-266 400,4 -4,4"/>
<g id="clust1" class="cluster">
<title>cluster_G</title>
<path fill="#808080" fill-opacity="0.094118" stroke="#000000" d="M20,-8C20,-8 376,-8 376,-8 382,-8 388,-14 388,-20 388,-20 388,-242 388,-242 388,-248 382,-254 376,-254 376,-254 20,-254 20,-254 14,-254 8,-248 8,-242 8,-242 8,-20 8,-20 8,-14 14,-8 20,-8"/>
</g>
<g id="clust2" class="cluster">
<title>cluster_XICRA__scripts__functions</title>
<path fill="#808080" fill-opacity="0.094118" stroke="#000000" d="M236,-16C236,-16 368,-16 368,-16 374,-16 380,-22 380,-28 380,-28 380,-79 380,-79 380,-85 374,-91 368,-91 368,-91 236,-91 236,-91 230,-91 224,-85 224,-79 224,-79 224,-28 224,-28 224,-22 230,-16 236,-16"/>
<text text-anchor="middle" x="302" y="-75.8" font-family="Times,serif" font-size="14.00" fill="#000000">XICRA.scripts.functions</text>
</g>
<g id="clust3" class="cluster">
<title>cluster_XICRA__scripts__generate_DE</title>
<path fill="#808080" fill-opacity="0.094118" stroke="#000000" d="M28,-99C28,-99 368,-99 368,-99 374,-99 380,-105 380,-111 380,-111 380,-234 380,-234 380,-240 374,-246 368,-246 368,-246 28,-246 28,-246 22,-246 16,-240 16,-234 16,-234 16,-111 16,-111 16,-105 22,-99 28,-99"/>
<text text-anchor="middle" x="198" y="-230.8" font-family="Times,serif" font-size="14.00" fill="#000000">XICRA.scripts.generate_DE</text>
</g>
<!-- XICRA__scripts__functions__is_non_zero_file -->
<g id="node1" class="node">
<title>XICRA__scripts__functions__is_non_zero_file</title>
<ellipse fill="#6575ff" fill-opacity="0.698039" stroke="#000000" cx="302" cy="-42" rx="69.5877" ry="18"/>
<text text-anchor="middle" x="302" y="-38.3" font-family="Times,serif" font-size="14.00" fill="#000000">is_non_zero_file</text>
</g>
<!-- XICRA__scripts__generate_DE__discard_UID_duplicated -->
<g id="node2" class="node">
<title>XICRA__scripts__generate_DE__discard_UID_duplicated</title>
<ellipse fill="#8465ff" fill-opacity="0.698039" stroke="#000000" cx="121" cy="-125" rx="96.6831" ry="18"/>
<text text-anchor="middle" x="121" y="-121.3" font-family="Times,serif" font-size="14.00" fill="#000000">discard_UID_duplicated</text>
</g>
<!-- XICRA__scripts__generate_DE__generate_DE -->
<g id="node3" class="node">
<title>XICRA__scripts__generate_DE__generate_DE</title>
<ellipse fill="#8465ff" fill-opacity="0.698039" stroke="#000000" cx="212" cy="-197" rx="56.59" ry="18"/>
<text text-anchor="middle" x="212" y="-193.3" font-family="Times,serif" font-size="14.00" fill="#000000">generate_DE</text>
</g>
<!-- XICRA__scripts__generate_DE__generate_DE&#45;&gt;XICRA__scripts__generate_DE__discard_UID_duplicated -->
<g id="edge2" class="edge">
<title>XICRA__scripts__generate_DE__generate_DE&#45;&gt;XICRA__scripts__generate_DE__discard_UID_duplicated</title>
<path fill="none" stroke="#000000" d="M186.6482,-180.6621C186.6482,-180.6621 186.6482,-148.3818 186.6482,-148.3818"/>
<polygon fill="#000000" stroke="#000000" points="190.1483,-148.3818 186.6482,-138.3818 183.1483,-148.3818 190.1483,-148.3818"/>
</g>
<!-- XICRA__scripts__generate_DE__generate_matrix -->
<g id="node4" class="node">
<title>XICRA__scripts__generate_DE__generate_matrix</title>
<ellipse fill="#8465ff" fill-opacity="0.698039" stroke="#000000" cx="304" cy="-125" rx="68.4888" ry="18"/>
<text text-anchor="middle" x="304" y="-121.3" font-family="Times,serif" font-size="14.00" fill="#000000">generate_matrix</text>
</g>
<!-- XICRA__scripts__generate_DE__generate_DE&#45;&gt;XICRA__scripts__generate_DE__generate_matrix -->
<g id="edge1" class="edge">
<title>XICRA__scripts__generate_DE__generate_DE&#45;&gt;XICRA__scripts__generate_DE__generate_matrix</title>
<path fill="none" stroke="#000000" d="M252.1505,-184.1278C252.1505,-184.1278 252.1505,-146.8062 252.1505,-146.8062"/>
<polygon fill="#000000" stroke="#000000" points="255.6506,-146.8062 252.1505,-136.8062 248.6506,-146.8062 255.6506,-146.8062"/>
</g>
<!-- XICRA__scripts__generate_DE__generate_matrix&#45;&gt;XICRA__scripts__functions__is_non_zero_file -->
<g id="edge3" class="edge">
<title>XICRA__scripts__generate_DE__generate_matrix&#45;&gt;XICRA__scripts__functions__is_non_zero_file</title>
<path fill="none" stroke="#000000" d="M303.6499,-106.9902C303.6499,-106.9902 303.6499,-70.2612 303.6499,-70.2612"/>
<polygon fill="#000000" stroke="#000000" points="307.15,-70.2612 303.6499,-60.2612 300.15,-70.2613 307.15,-70.2612"/>
</g>
</g>
</svg>
