<?xml version="1.0" encoding="UTF-8" standalone="no"?>
<!DOCTYPE svg PUBLIC "-//W3C//DTD SVG 1.1//EN"
 "http://www.w3.org/Graphics/SVG/1.1/DTD/svg11.dtd">
<!-- Generated by graphviz version 2.40.1 (20161225.0304)
 -->
<!-- Title: G Pages: 1 -->
<svg width="459pt" height="270pt"
 viewBox="0.00 0.00 459.00 270.00" xmlns="http://www.w3.org/2000/svg" xmlns:xlink="http://www.w3.org/1999/xlink">
<g id="graph0" class="graph" transform="scale(1 1) rotate(0) translate(4 266)">
<title>G</title>
<polygon fill="#ffffff" stroke="transparent" points="-4,4 -4,-266 455,-266 455,4 -4,4"/>
<g id="clust1" class="cluster">
<title>cluster_G</title>
<path fill="#808080" fill-opacity="0.094118" stroke="#000000" d="M20,-8C20,-8 431,-8 431,-8 437,-8 443,-14 443,-20 443,-20 443,-242 443,-242 443,-248 437,-254 431,-254 431,-254 20,-254 20,-254 14,-254 8,-248 8,-242 8,-242 8,-20 8,-20 8,-14 14,-8 20,-8"/>
</g>
<g id="clust2" class="cluster">
<title>cluster_XICRA__config__set_config</title>
<path fill="#808080" fill-opacity="0.094118" stroke="#000000" d="M28,-16C28,-16 161,-16 161,-16 167,-16 173,-22 173,-28 173,-28 173,-79 173,-79 173,-85 167,-91 161,-91 161,-91 28,-91 28,-91 22,-91 16,-85 16,-79 16,-79 16,-28 16,-28 16,-22 22,-16 28,-16"/>
<text text-anchor="middle" x="94.5" y="-75.8" font-family="Times,serif" font-size="14.00" fill="#000000">XICRA.config.set_config</text>
</g>
<g id="clust3" class="cluster">
<title>cluster_XICRA__scripts__functions</title>
<path fill="#808080" fill-opacity="0.094118" stroke="#000000" d="M193,-16C193,-16 423,-16 423,-16 429,-16 435,-22 435,-28 435,-28 435,-79 435,-79 435,-85 429,-91 423,-91 423,-91 193,-91 193,-91 187,-91 181,-85 181,-79 181,-79 181,-28 181,-28 181,-22 187,-16 193,-16"/>
<text text-anchor="middle" x="308" y="-75.8" font-family="Times,serif" font-size="14.00" fill="#000000">XICRA.scripts.functions</text>
</g>
<g id="clust4" class="cluster">
<title>cluster_XICRA__scripts__multiQC_report</title>
<path fill="#808080" fill-opacity="0.094118" stroke="#000000" d="M156,-99C156,-99 328,-99 328,-99 334,-99 340,-105 340,-111 340,-111 340,-234 340,-234 340,-240 334,-246 328,-246 328,-246 156,-246 156,-246 150,-246 144,-240 144,-234 144,-234 144,-111 144,-111 144,-105 150,-99 156,-99"/>
<text text-anchor="middle" x="242" y="-230.8" font-family="Times,serif" font-size="14.00" fill="#000000">XICRA.scripts.multiQC_report</text>
</g>
<!-- XICRA__config__set_config__get_exe -->
<g id="node1" class="node">
<title>XICRA__config__set_config__get_exe</title>
<ellipse fill="#ff9365" fill-opacity="0.698039" stroke="#000000" cx="127" cy="-42" rx="38.1938" ry="18"/>
<text text-anchor="middle" x="127" y="-38.3" font-family="Times,serif" font-size="14.00" fill="#000000">get_exe</text>
</g>
<!-- XICRA__scripts__functions__printList2file -->
<g id="node2" class="node">
<title>XICRA__scripts__functions__printList2file</title>
<ellipse fill="#6575ff" fill-opacity="0.698039" stroke="#000000" cx="370" cy="-42" rx="57.3905" ry="18"/>
<text text-anchor="middle" x="370" y="-38.3" font-family="Times,serif" font-size="14.00" fill="#000000">printList2file</text>
</g>
<!-- XICRA__scripts__functions__system_call -->
<g id="node3" class="node">
<title>XICRA__scripts__functions__system_call</title>
<ellipse fill="#6575ff" fill-opacity="0.698039" stroke="#000000" cx="242" cy="-42" rx="52.7911" ry="18"/>
<text text-anchor="middle" x="242" y="-38.3" font-family="Times,serif" font-size="14.00" fill="#000000">system_call</text>
</g>
<!-- XICRA__scripts__multiQC_report__multiQC_call -->
<g id="node4" class="node">
<title>XICRA__scripts__multiQC_report__multiQC_call</title>
<ellipse fill="#e065ff" fill-opacity="0.698039" stroke="#000000" cx="242" cy="-125" rx="59.2899" ry="18"/>
<text text-anchor="middle" x="242" y="-121.3" font-family="Times,serif" font-size="14.00" fill="#000000">multiQC_call</text>
</g>
<!-- XICRA__scripts__multiQC_report__multiQC_call&#45;&gt;XICRA__config__set_config__get_exe -->
<g id="edge3" class="edge">
<title>XICRA__scripts__multiQC_report__multiQC_call&#45;&gt;XICRA__config__set_config__get_exe</title>
<path fill="none" stroke="#000000" d="M182.6533,-125C169.0529,-125 158.5023,-125 158.5023,-125 158.5023,-125 158.5023,-62.512 158.5023,-62.512"/>
<polygon fill="#000000" stroke="#000000" points="162.0024,-62.512 158.5023,-52.512 155.0024,-62.512 162.0024,-62.512"/>
</g>
<!-- XICRA__scripts__multiQC_report__multiQC_call&#45;&gt;XICRA__scripts__functions__system_call -->
<g id="edge4" class="edge">
<title>XICRA__scripts__multiQC_report__multiQC_call&#45;&gt;XICRA__scripts__functions__system_call</title>
<path fill="none" stroke="#000000" d="M242,-106.9902C242,-106.9902 242,-70.2612 242,-70.2612"/>
<polygon fill="#000000" stroke="#000000" points="245.5001,-70.2612 242,-60.2612 238.5001,-70.2613 245.5001,-70.2612"/>
</g>
<!-- XICRA__scripts__multiQC_report__multiQC_module_call -->
<g id="node5" class="node">
<title>XICRA__scripts__multiQC_report__multiQC_module_call</title>
<ellipse fill="#e065ff" fill-opacity="0.698039" stroke="#000000" cx="242" cy="-197" rx="90.1842" ry="18"/>
<text text-anchor="middle" x="242" y="-193.3" font-family="Times,serif" font-size="14.00" fill="#000000">multiQC_module_call</text>
</g>
<!-- XICRA__scripts__multiQC_report__multiQC_module_call&#45;&gt;XICRA__scripts__functions__printList2file -->
<g id="edge2" class="edge">
<title>XICRA__scripts__multiQC_report__multiQC_module_call&#45;&gt;XICRA__scripts__functions__printList2file</title>
<path fill="none" stroke="#000000" d="M322.5735,-188.6665C322.5735,-188.6665 322.5735,-62.3578 322.5735,-62.3578"/>
<polygon fill="#000000" stroke="#000000" points="326.0736,-62.3578 322.5735,-52.3578 319.0736,-62.3578 326.0736,-62.3578"/>
</g>
<!-- XICRA__scripts__multiQC_report__multiQC_module_call&#45;&gt;XICRA__scripts__multiQC_report__multiQC_call -->
<g id="edge1" class="edge">
<title>XICRA__scripts__multiQC_report__multiQC_module_call&#45;&gt;XICRA__scripts__multiQC_report__multiQC_call</title>
<path fill="none" stroke="#000000" d="M242,-178.8314C242,-178.8314 242,-153.4133 242,-153.4133"/>
<polygon fill="#000000" stroke="#000000" points="245.5001,-153.4132 242,-143.4133 238.5001,-153.4133 245.5001,-153.4132"/>
</g>
</g>
</svg>
