<?xml version="1.0" encoding="UTF-8" standalone="no"?>
<!DOCTYPE svg PUBLIC "-//W3C//DTD SVG 1.1//EN"
 "http://www.w3.org/Graphics/SVG/1.1/DTD/svg11.dtd">
<!-- Generated by graphviz version 2.40.1 (20161225.0304)
 -->
<!-- Title: G Pages: 1 -->
<svg width="302pt" height="259pt"
 viewBox="0.00 0.00 302.00 259.00" xmlns="http://www.w3.org/2000/svg" xmlns:xlink="http://www.w3.org/1999/xlink">
<g id="graph0" class="graph" transform="scale(1 1) rotate(0) translate(4 255)">
<title>G</title>
<polygon fill="#ffffff" stroke="transparent" points="-4,4 -4,-255 298,-255 298,4 -4,4"/>
<g id="clust1" class="cluster">
<title>cluster_G</title>
<path fill="#808080" fill-opacity="0.094118" stroke="#000000" d="M20,-8C20,-8 274,-8 274,-8 280,-8 286,-14 286,-20 286,-20 286,-231 286,-231 286,-237 280,-243 274,-243 274,-243 20,-243 20,-243 14,-243 8,-237 8,-231 8,-231 8,-20 8,-20 8,-14 14,-8 20,-8"/>
</g>
<g id="clust2" class="cluster">
<title>cluster_XICRA__scripts__reads2tabular</title>
<path fill="#808080" fill-opacity="0.094118" stroke="#000000" d="M28,-16C28,-16 266,-16 266,-16 272,-16 278,-22 278,-28 278,-28 278,-223 278,-223 278,-229 272,-235 266,-235 266,-235 28,-235 28,-235 22,-235 16,-229 16,-223 16,-223 16,-28 16,-28 16,-22 22,-16 28,-16"/>
<text text-anchor="middle" x="147" y="-219.8" font-family="Times,serif" font-size="14.00" fill="#000000">XICRA.scripts.reads2tabular</text>
</g>
<!-- XICRA__scripts__reads2tabular__help_options -->
<g id="node1" class="node">
<title>XICRA__scripts__reads2tabular__help_options</title>
<ellipse fill="#ff65ef" fill-opacity="0.698039" stroke="#000000" cx="80" cy="-114" rx="55.7903" ry="18"/>
<text text-anchor="middle" x="80" y="-110.3" font-family="Times,serif" font-size="14.00" fill="#000000">help_options</text>
</g>
<!-- XICRA__scripts__reads2tabular__main -->
<g id="node2" class="node">
<title>XICRA__scripts__reads2tabular__main</title>
<ellipse fill="#ff65ef" fill-opacity="0.698039" stroke="#000000" cx="146" cy="-186" rx="28.6953" ry="18"/>
<text text-anchor="middle" x="146" y="-182.3" font-family="Times,serif" font-size="14.00" fill="#000000">main</text>
</g>
<!-- XICRA__scripts__reads2tabular__main&#45;&gt;XICRA__scripts__reads2tabular__help_options -->
<g id="edge2" class="edge">
<title>XICRA__scripts__reads2tabular__main&#45;&gt;XICRA__scripts__reads2tabular__help_options</title>
<path fill="none" stroke="#000000" d="M126.6488,-172.4574C126.6488,-172.4574 126.6488,-134.2251 126.6488,-134.2251"/>
<polygon fill="#000000" stroke="#000000" points="130.1489,-134.225 126.6488,-124.2251 123.1489,-134.2251 130.1489,-134.225"/>
</g>
<!-- XICRA__scripts__reads2tabular__reads2tabular -->
<g id="node4" class="node">
<title>XICRA__scripts__reads2tabular__reads2tabular</title>
<ellipse fill="#ff65ef" fill-opacity="0.698039" stroke="#000000" cx="212" cy="-114" rx="57.6901" ry="18"/>
<text text-anchor="middle" x="212" y="-110.3" font-family="Times,serif" font-size="14.00" fill="#000000">reads2tabular</text>
</g>
<!-- XICRA__scripts__reads2tabular__main&#45;&gt;XICRA__scripts__reads2tabular__reads2tabular -->
<g id="edge3" class="edge">
<title>XICRA__scripts__reads2tabular__main&#45;&gt;XICRA__scripts__reads2tabular__reads2tabular</title>
<path fill="none" stroke="#000000" d="M164.3763,-172.1177C164.3763,-172.1177 164.3763,-134.5658 164.3763,-134.5658"/>
<polygon fill="#000000" stroke="#000000" points="167.8764,-134.5658 164.3763,-124.5658 160.8764,-134.5659 167.8764,-134.5658"/>
</g>
<!-- XICRA__scripts__reads2tabular__process_fastq -->
<g id="node3" class="node">
<title>XICRA__scripts__reads2tabular__process_fastq</title>
<ellipse fill="#ff65ef" fill-opacity="0.698039" stroke="#000000" cx="212" cy="-42" rx="58.4896" ry="18"/>
<text text-anchor="middle" x="212" y="-38.3" font-family="Times,serif" font-size="14.00" fill="#000000">process_fastq</text>
</g>
<!-- XICRA__scripts__reads2tabular__reads2tabular&#45;&gt;XICRA__scripts__reads2tabular__process_fastq -->
<g id="edge1" class="edge">
<title>XICRA__scripts__reads2tabular__reads2tabular&#45;&gt;XICRA__scripts__reads2tabular__process_fastq</title>
<path fill="none" stroke="#000000" d="M212,-95.8314C212,-95.8314 212,-70.4133 212,-70.4133"/>
<polygon fill="#000000" stroke="#000000" points="215.5001,-70.4132 212,-60.4133 208.5001,-70.4133 215.5001,-70.4132"/>
</g>
</g>
</svg>
