<?xml version="1.0" encoding="UTF-8" standalone="no"?>
<!DOCTYPE svg PUBLIC "-//W3C//DTD SVG 1.1//EN"
 "http://www.w3.org/Graphics/SVG/1.1/DTD/svg11.dtd">
<!-- Generated by graphviz version 2.40.1 (20161225.0304)
 -->
<!-- Title: G Pages: 1 -->
<svg width="308pt" height="187pt"
 viewBox="0.00 0.00 308.00 187.00" xmlns="http://www.w3.org/2000/svg" xmlns:xlink="http://www.w3.org/1999/xlink">
<g id="graph0" class="graph" transform="scale(1 1) rotate(0) translate(4 183)">
<title>G</title>
<polygon fill="#ffffff" stroke="transparent" points="-4,4 -4,-183 304,-183 304,4 -4,4"/>
<g id="clust1" class="cluster">
<title>cluster_G</title>
<path fill="#808080" fill-opacity="0.094118" stroke="#000000" d="M20,-8C20,-8 280,-8 280,-8 286,-8 292,-14 292,-20 292,-20 292,-159 292,-159 292,-165 286,-171 280,-171 280,-171 20,-171 20,-171 14,-171 8,-165 8,-159 8,-159 8,-20 8,-20 8,-14 14,-8 20,-8"/>
</g>
<g id="clust2" class="cluster">
<title>cluster_XICRA__scripts__generate_barplot_RNAbiotype</title>
<path fill="#808080" fill-opacity="0.094118" stroke="#000000" d="M28,-16C28,-16 272,-16 272,-16 278,-16 284,-22 284,-28 284,-28 284,-151 284,-151 284,-157 278,-163 272,-163 272,-163 28,-163 28,-163 22,-163 16,-157 16,-151 16,-151 16,-28 16,-28 16,-22 22,-16 28,-16"/>
<text text-anchor="middle" x="150" y="-147.8" font-family="Times,serif" font-size="14.00" fill="#000000">XICRA.scripts.generate_barplot_RNAbiotype</text>
</g>
<!-- XICRA__scripts__generate_barplot_RNAbiotype__generate_matrix -->
<g id="node1" class="node">
<title>XICRA__scripts__generate_barplot_RNAbiotype__generate_matrix</title>
<ellipse fill="#b265ff" fill-opacity="0.698039" stroke="#000000" cx="150" cy="-42" rx="68.4888" ry="18"/>
<text text-anchor="middle" x="150" y="-38.3" font-family="Times,serif" font-size="14.00" fill="#000000">generate_matrix</text>
</g>
<!-- XICRA__scripts__generate_barplot_RNAbiotype__main -->
<g id="node2" class="node">
<title>XICRA__scripts__generate_barplot_RNAbiotype__main</title>
<ellipse fill="#b265ff" fill-opacity="0.698039" stroke="#000000" cx="150" cy="-114" rx="28.6953" ry="18"/>
<text text-anchor="middle" x="150" y="-110.3" font-family="Times,serif" font-size="14.00" fill="#000000">main</text>
</g>
<!-- XICRA__scripts__generate_barplot_RNAbiotype__main&#45;&gt;XICRA__scripts__generate_barplot_RNAbiotype__generate_matrix -->
<g id="edge1" class="edge">
<title>XICRA__scripts__generate_barplot_RNAbiotype__main&#45;&gt;XICRA__scripts__generate_barplot_RNAbiotype__generate_matrix</title>
<path fill="none" stroke="#000000" d="M150,-95.8314C150,-95.8314 150,-70.4133 150,-70.4133"/>
<polygon fill="#000000" stroke="#000000" points="153.5001,-70.4132 150,-60.4133 146.5001,-70.4133 153.5001,-70.4132"/>
</g>
</g>
</svg>
