<?xml version="1.0" encoding="UTF-8" standalone="no"?>
<!DOCTYPE svg PUBLIC "-//W3C//DTD SVG 1.1//EN"
 "http://www.w3.org/Graphics/SVG/1.1/DTD/svg11.dtd">
<!-- Generated by graphviz version 2.40.1 (20161225.0304)
 -->
<!-- Title: G Pages: 1 -->
<svg width="916pt" height="262pt"
 viewBox="0.00 0.00 916.00 262.00" xmlns="http://www.w3.org/2000/svg" xmlns:xlink="http://www.w3.org/1999/xlink">
<g id="graph0" class="graph" transform="scale(1 1) rotate(0) translate(4 258)">
<title>G</title>
<polygon fill="#ffffff" stroke="transparent" points="-4,4 -4,-258 912,-258 912,4 -4,4"/>
<g id="clust1" class="cluster">
<title>cluster_G</title>
<path fill="#808080" fill-opacity="0.094118" stroke="#000000" d="M20,-8C20,-8 888,-8 888,-8 894,-8 900,-14 900,-20 900,-20 900,-234 900,-234 900,-240 894,-246 888,-246 888,-246 20,-246 20,-246 14,-246 8,-240 8,-234 8,-234 8,-20 8,-20 8,-14 14,-8 20,-8"/>
</g>
<g id="clust2" class="cluster">
<title>cluster_XICRA__scripts__functions</title>
<path fill="#808080" fill-opacity="0.094118" stroke="#000000" d="M336,-16C336,-16 880,-16 880,-16 886,-16 892,-22 892,-28 892,-28 892,-151 892,-151 892,-157 886,-163 880,-163 880,-163 336,-163 336,-163 330,-163 324,-157 324,-151 324,-151 324,-28 324,-28 324,-22 330,-16 336,-16"/>
<text text-anchor="middle" x="608" y="-147.8" font-family="Times,serif" font-size="14.00" fill="#000000">XICRA.scripts.functions</text>
</g>
<g id="clust3" class="cluster">
<title>cluster_XICRA__scripts__sampleParser</title>
<path fill="#808080" fill-opacity="0.094118" stroke="#000000" d="M28,-16C28,-16 290,-16 290,-16 296,-16 302,-22 302,-28 302,-28 302,-226 302,-226 302,-232 296,-238 290,-238 290,-238 28,-238 28,-238 22,-238 16,-232 16,-226 16,-226 16,-28 16,-28 16,-22 22,-16 28,-16"/>
<text text-anchor="middle" x="159" y="-222.8" font-family="Times,serif" font-size="14.00" fill="#000000">XICRA.scripts.sampleParser</text>
</g>
<!-- XICRA__scripts__functions__create_human_timestamp -->
<g id="node1" class="node">
<title>XICRA__scripts__functions__create_human_timestamp</title>
<ellipse fill="#6575ff" fill-opacity="0.698039" stroke="#000000" cx="435" cy="-114" rx="102.8821" ry="18"/>
<text text-anchor="middle" x="435" y="-110.3" font-family="Times,serif" font-size="14.00" fill="#000000">create_human_timestamp</text>
</g>
<!-- XICRA__scripts__functions__get_fullpath_list -->
<g id="node2" class="node">
<title>XICRA__scripts__functions__get_fullpath_list</title>
<ellipse fill="#6575ff" fill-opacity="0.698039" stroke="#000000" cx="651" cy="-42" rx="68.4888" ry="18"/>
<text text-anchor="middle" x="651" y="-38.3" font-family="Times,serif" font-size="14.00" fill="#000000">get_fullpath_list</text>
</g>
<!-- XICRA__scripts__functions__print_sepLine -->
<g id="node3" class="node">
<title>XICRA__scripts__functions__print_sepLine</title>
<ellipse fill="#6575ff" fill-opacity="0.698039" stroke="#000000" cx="824" cy="-114" rx="59.5901" ry="18"/>
<text text-anchor="middle" x="824" y="-110.3" font-family="Times,serif" font-size="14.00" fill="#000000">print_sepLine</text>
</g>
<!-- XICRA__scripts__functions__retrieve_matching_files -->
<g id="node4" class="node">
<title>XICRA__scripts__functions__retrieve_matching_files</title>
<ellipse fill="#6575ff" fill-opacity="0.698039" stroke="#000000" cx="651" cy="-114" rx="94.7833" ry="18"/>
<text text-anchor="middle" x="651" y="-110.3" font-family="Times,serif" font-size="14.00" fill="#000000">retrieve_matching_files</text>
</g>
<!-- XICRA__scripts__functions__retrieve_matching_files&#45;&gt;XICRA__scripts__functions__get_fullpath_list -->
<g id="edge1" class="edge">
<title>XICRA__scripts__functions__retrieve_matching_files&#45;&gt;XICRA__scripts__functions__get_fullpath_list</title>
<path fill="none" stroke="#000000" d="M651,-95.8314C651,-95.8314 651,-70.4133 651,-70.4133"/>
<polygon fill="#000000" stroke="#000000" points="654.5001,-70.4132 651,-60.4133 647.5001,-70.4133 654.5001,-70.4132"/>
</g>
<!-- XICRA__scripts__sampleParser__get_fields -->
<g id="node5" class="node">
<title>XICRA__scripts__sampleParser__get_fields</title>
<ellipse fill="#ff65c1" fill-opacity="0.698039" stroke="#000000" cx="230" cy="-42" rx="45.4919" ry="18"/>
<text text-anchor="middle" x="230" y="-38.3" font-family="Times,serif" font-size="14.00" fill="#000000">get_fields</text>
</g>
<!-- XICRA__scripts__sampleParser__get_files -->
<g id="node6" class="node">
<title>XICRA__scripts__sampleParser__get_files</title>
<ellipse fill="#ff65c1" fill-opacity="0.698039" stroke="#000000" cx="253" cy="-189" rx="40.8928" ry="18"/>
<text text-anchor="middle" x="253" y="-185.3" font-family="Times,serif" font-size="14.00" fill="#000000">get_files</text>
</g>
<!-- XICRA__scripts__sampleParser__get_files&#45;&gt;XICRA__scripts__functions__get_fullpath_list -->
<g id="edge7" class="edge">
<title>XICRA__scripts__sampleParser__get_files&#45;&gt;XICRA__scripts__functions__get_fullpath_list</title>
<path fill="none" stroke="#000000" d="M294.1029,-189C304.6723,-189 313.1277,-189 313.1277,-189 313.1277,-189 313.1277,-42 313.1277,-42 313.1277,-42 572.6265,-42 572.6265,-42"/>
<polygon fill="#000000" stroke="#000000" points="572.6265,-45.5001 582.6265,-42 572.6265,-38.5001 572.6265,-45.5001"/>
</g>
<!-- XICRA__scripts__sampleParser__get_files&#45;&gt;XICRA__scripts__functions__print_sepLine -->
<g id="edge6" class="edge">
<title>XICRA__scripts__sampleParser__get_files&#45;&gt;XICRA__scripts__functions__print_sepLine</title>
<path fill="none" stroke="#000000" d="M288.7186,-198C413.7244,-198 824,-198 824,-198 824,-198 824,-142.2267 824,-142.2267"/>
<polygon fill="#000000" stroke="#000000" points="827.5001,-142.2267 824,-132.2267 820.5001,-142.2268 827.5001,-142.2267"/>
</g>
<!-- XICRA__scripts__sampleParser__get_files&#45;&gt;XICRA__scripts__functions__retrieve_matching_files -->
<g id="edge5" class="edge">
<title>XICRA__scripts__sampleParser__get_files&#45;&gt;XICRA__scripts__functions__retrieve_matching_files</title>
<path fill="none" stroke="#000000" d="M288.6701,-180C386.3596,-180 651,-180 651,-180 651,-180 651,-142.0348 651,-142.0348"/>
<polygon fill="#000000" stroke="#000000" points="654.5001,-142.0348 651,-132.0348 647.5001,-142.0348 654.5001,-142.0348"/>
</g>
<!-- XICRA__scripts__sampleParser__select_samples -->
<g id="node9" class="node">
<title>XICRA__scripts__sampleParser__select_samples</title>
<ellipse fill="#ff65c1" fill-opacity="0.698039" stroke="#000000" cx="230" cy="-114" rx="63.8893" ry="18"/>
<text text-anchor="middle" x="230" y="-110.3" font-family="Times,serif" font-size="14.00" fill="#000000">select_samples</text>
</g>
<!-- XICRA__scripts__sampleParser__get_files&#45;&gt;XICRA__scripts__sampleParser__select_samples -->
<g id="edge8" class="edge">
<title>XICRA__scripts__sampleParser__get_files&#45;&gt;XICRA__scripts__sampleParser__select_samples</title>
<path fill="none" stroke="#000000" d="M252.874,-170.8446C252.874,-170.8446 252.874,-140.9601 252.874,-140.9601"/>
<polygon fill="#000000" stroke="#000000" points="256.3741,-140.9601 252.874,-130.9601 249.3741,-140.9601 256.3741,-140.9601"/>
</g>
<!-- XICRA__scripts__sampleParser__gunzip_merge -->
<g id="node7" class="node">
<title>XICRA__scripts__sampleParser__gunzip_merge</title>
<ellipse fill="#ff65c1" fill-opacity="0.698039" stroke="#000000" cx="87" cy="-114" rx="61.99" ry="18"/>
<text text-anchor="middle" x="87" y="-110.3" font-family="Times,serif" font-size="14.00" fill="#000000">gunzip_merge</text>
</g>
<!-- XICRA__scripts__sampleParser__one_file_per_sample -->
<g id="node8" class="node">
<title>XICRA__scripts__sampleParser__one_file_per_sample</title>
<ellipse fill="#ff65c1" fill-opacity="0.698039" stroke="#000000" cx="109" cy="-189" rx="85.2851" ry="18"/>
<text text-anchor="middle" x="109" y="-185.3" font-family="Times,serif" font-size="14.00" fill="#000000">one_file_per_sample</text>
</g>
<!-- XICRA__scripts__sampleParser__one_file_per_sample&#45;&gt;XICRA__scripts__functions__create_human_timestamp -->
<g id="edge4" class="edge">
<title>XICRA__scripts__sampleParser__one_file_per_sample&#45;&gt;XICRA__scripts__functions__create_human_timestamp</title>
<path fill="none" stroke="#000000" d="M180.224,-179.0159C180.224,-167.7572 180.224,-151 180.224,-151 180.224,-151 435,-151 435,-151 435,-151 435,-142.0664 435,-142.0664"/>
<polygon fill="#000000" stroke="#000000" points="438.5001,-142.0664 435,-132.0664 431.5001,-142.0665 438.5001,-142.0664"/>
</g>
<!-- XICRA__scripts__sampleParser__one_file_per_sample&#45;&gt;XICRA__scripts__sampleParser__gunzip_merge -->
<g id="edge3" class="edge">
<title>XICRA__scripts__sampleParser__one_file_per_sample&#45;&gt;XICRA__scripts__sampleParser__gunzip_merge</title>
<path fill="none" stroke="#000000" d="M87,-171.605C87,-171.605 87,-142.0837 87,-142.0837"/>
<polygon fill="#000000" stroke="#000000" points="90.5001,-142.0837 87,-132.0837 83.5001,-142.0837 90.5001,-142.0837"/>
</g>
<!-- XICRA__scripts__sampleParser__select_samples&#45;&gt;XICRA__scripts__sampleParser__get_fields -->
<g id="edge2" class="edge">
<title>XICRA__scripts__sampleParser__select_samples&#45;&gt;XICRA__scripts__sampleParser__get_fields</title>
<path fill="none" stroke="#000000" d="M230,-95.8314C230,-95.8314 230,-70.4133 230,-70.4133"/>
<polygon fill="#000000" stroke="#000000" points="233.5001,-70.4132 230,-60.4133 226.5001,-70.4133 233.5001,-70.4132"/>
</g>
</g>
</svg>
